<mxfile host="app.diagrams.net" modified="2024-01-15T18:30:50.009Z" agent="Mozilla/5.0 (Windows NT 10.0; Win64; x64) AppleWebKit/537.36 (KHTML, like Gecko) Chrome/120.0.0.0 Safari/537.36" etag="hkSF2LpqFzGQCcTPT5sO" version="22.1.18" type="google">
  <diagram name="P치gina-1" id="yBZQD84bRNSs-REseiB0">
    <mxGraphModel grid="1" page="1" gridSize="10" guides="1" tooltips="1" connect="1" arrows="1" fold="1" pageScale="1" pageWidth="827" pageHeight="1169" math="0" shadow="0">
      <root>
        <mxCell id="0" />
        <mxCell id="1" parent="0" />
        <mxCell id="kf9v6wlm7Lq_Ow1QCOcK-1" style="edgeStyle=orthogonalEdgeStyle;rounded=0;orthogonalLoop=1;jettySize=auto;html=1;exitX=0.5;exitY=1;exitDx=0;exitDy=0;entryX=0.5;entryY=0;entryDx=0;entryDy=0;endArrow=none;endFill=0;" edge="1" parent="1" source="kf9v6wlm7Lq_Ow1QCOcK-7" target="kf9v6wlm7Lq_Ow1QCOcK-12">
          <mxGeometry relative="1" as="geometry" />
        </mxCell>
        <mxCell id="kf9v6wlm7Lq_Ow1QCOcK-2" style="edgeStyle=orthogonalEdgeStyle;rounded=0;orthogonalLoop=1;jettySize=auto;html=1;exitX=0.5;exitY=1;exitDx=0;exitDy=0;endArrow=none;endFill=0;" edge="1" parent="1" source="kf9v6wlm7Lq_Ow1QCOcK-7" target="kf9v6wlm7Lq_Ow1QCOcK-17">
          <mxGeometry relative="1" as="geometry" />
        </mxCell>
        <mxCell id="kf9v6wlm7Lq_Ow1QCOcK-3" style="edgeStyle=orthogonalEdgeStyle;rounded=0;orthogonalLoop=1;jettySize=auto;html=1;exitX=0.5;exitY=1;exitDx=0;exitDy=0;entryX=0.5;entryY=0;entryDx=0;entryDy=0;endArrow=none;endFill=0;" edge="1" parent="1" source="kf9v6wlm7Lq_Ow1QCOcK-7" target="kf9v6wlm7Lq_Ow1QCOcK-20">
          <mxGeometry relative="1" as="geometry" />
        </mxCell>
        <mxCell id="kf9v6wlm7Lq_Ow1QCOcK-4" style="edgeStyle=orthogonalEdgeStyle;rounded=0;orthogonalLoop=1;jettySize=auto;html=1;exitX=0.5;exitY=1;exitDx=0;exitDy=0;entryX=0.5;entryY=0;entryDx=0;entryDy=0;endArrow=none;endFill=0;" edge="1" parent="1" source="kf9v6wlm7Lq_Ow1QCOcK-7" target="kf9v6wlm7Lq_Ow1QCOcK-24">
          <mxGeometry relative="1" as="geometry" />
        </mxCell>
        <mxCell id="kf9v6wlm7Lq_Ow1QCOcK-5" style="edgeStyle=orthogonalEdgeStyle;rounded=0;orthogonalLoop=1;jettySize=auto;html=1;exitX=0.5;exitY=1;exitDx=0;exitDy=0;endArrow=none;endFill=0;" edge="1" parent="1" source="kf9v6wlm7Lq_Ow1QCOcK-7" target="kf9v6wlm7Lq_Ow1QCOcK-28">
          <mxGeometry relative="1" as="geometry" />
        </mxCell>
        <mxCell id="kf9v6wlm7Lq_Ow1QCOcK-6" style="edgeStyle=orthogonalEdgeStyle;rounded=0;orthogonalLoop=1;jettySize=auto;html=1;exitX=0.5;exitY=1;exitDx=0;exitDy=0;entryX=0.5;entryY=0;entryDx=0;entryDy=0;endArrow=none;endFill=0;" edge="1" parent="1" source="kf9v6wlm7Lq_Ow1QCOcK-7" target="kf9v6wlm7Lq_Ow1QCOcK-32">
          <mxGeometry relative="1" as="geometry" />
        </mxCell>
        <mxCell id="kf9v6wlm7Lq_Ow1QCOcK-7" value="Visualizaci칩n de&amp;nbsp;&lt;br&gt;componentes en 3D&lt;br&gt;(0)" style="rounded=0;whiteSpace=wrap;html=1;fillColor=#ffe6cc;strokeColor=#d79b00;" vertex="1" parent="1">
          <mxGeometry x="434" y="60" width="120" height="60" as="geometry" />
        </mxCell>
        <mxCell id="kf9v6wlm7Lq_Ow1QCOcK-8" style="edgeStyle=orthogonalEdgeStyle;rounded=0;orthogonalLoop=1;jettySize=auto;html=1;exitX=0.5;exitY=1;exitDx=0;exitDy=0;entryX=0.5;entryY=0;entryDx=0;entryDy=0;endArrow=none;endFill=0;" edge="1" parent="1" source="kf9v6wlm7Lq_Ow1QCOcK-12" target="kf9v6wlm7Lq_Ow1QCOcK-33">
          <mxGeometry relative="1" as="geometry" />
        </mxCell>
        <mxCell id="kf9v6wlm7Lq_Ow1QCOcK-9" style="edgeStyle=orthogonalEdgeStyle;rounded=0;orthogonalLoop=1;jettySize=auto;html=1;exitX=0.5;exitY=1;exitDx=0;exitDy=0;endArrow=none;endFill=0;" edge="1" parent="1" source="kf9v6wlm7Lq_Ow1QCOcK-12" target="kf9v6wlm7Lq_Ow1QCOcK-34">
          <mxGeometry relative="1" as="geometry" />
        </mxCell>
        <mxCell id="kf9v6wlm7Lq_Ow1QCOcK-10" style="edgeStyle=orthogonalEdgeStyle;rounded=0;orthogonalLoop=1;jettySize=auto;html=1;exitX=0.5;exitY=1;exitDx=0;exitDy=0;endArrow=none;endFill=0;" edge="1" parent="1" source="kf9v6wlm7Lq_Ow1QCOcK-12" target="kf9v6wlm7Lq_Ow1QCOcK-35">
          <mxGeometry relative="1" as="geometry" />
        </mxCell>
        <mxCell id="kf9v6wlm7Lq_Ow1QCOcK-11" style="edgeStyle=orthogonalEdgeStyle;rounded=0;orthogonalLoop=1;jettySize=auto;html=1;exitX=0.5;exitY=1;exitDx=0;exitDy=0;endArrow=none;endFill=0;" edge="1" parent="1" source="kf9v6wlm7Lq_Ow1QCOcK-12" target="kf9v6wlm7Lq_Ow1QCOcK-36">
          <mxGeometry relative="1" as="geometry" />
        </mxCell>
        <mxCell id="kf9v6wlm7Lq_Ow1QCOcK-12" value="Iniciar la aplicaci칩n&lt;br&gt;(1)" style="rounded=0;whiteSpace=wrap;html=1;fillColor=#ffe6cc;strokeColor=#d79b00;" vertex="1" parent="1">
          <mxGeometry x="-90" y="210" width="120" height="60" as="geometry" />
        </mxCell>
        <mxCell id="kf9v6wlm7Lq_Ow1QCOcK-13" style="edgeStyle=orthogonalEdgeStyle;rounded=0;orthogonalLoop=1;jettySize=auto;html=1;exitX=0.5;exitY=1;exitDx=0;exitDy=0;endArrow=none;endFill=0;" edge="1" parent="1" source="kf9v6wlm7Lq_Ow1QCOcK-17" target="kf9v6wlm7Lq_Ow1QCOcK-42">
          <mxGeometry relative="1" as="geometry">
            <Array as="points">
              <mxPoint x="410" y="480" />
              <mxPoint x="220" y="480" />
            </Array>
          </mxGeometry>
        </mxCell>
        <mxCell id="kf9v6wlm7Lq_Ow1QCOcK-14" style="edgeStyle=orthogonalEdgeStyle;rounded=0;orthogonalLoop=1;jettySize=auto;html=1;exitX=0.5;exitY=1;exitDx=0;exitDy=0;endArrow=none;endFill=0;" edge="1" parent="1" source="kf9v6wlm7Lq_Ow1QCOcK-17" target="kf9v6wlm7Lq_Ow1QCOcK-43">
          <mxGeometry relative="1" as="geometry">
            <Array as="points">
              <mxPoint x="410" y="480" />
              <mxPoint x="350" y="480" />
            </Array>
          </mxGeometry>
        </mxCell>
        <mxCell id="kf9v6wlm7Lq_Ow1QCOcK-15" style="edgeStyle=orthogonalEdgeStyle;rounded=0;orthogonalLoop=1;jettySize=auto;html=1;exitX=0.5;exitY=1;exitDx=0;exitDy=0;entryX=0.5;entryY=0;entryDx=0;entryDy=0;endArrow=none;endFill=0;" edge="1" parent="1" source="kf9v6wlm7Lq_Ow1QCOcK-17" target="kf9v6wlm7Lq_Ow1QCOcK-44">
          <mxGeometry relative="1" as="geometry">
            <Array as="points">
              <mxPoint x="410" y="480" />
              <mxPoint x="480" y="480" />
            </Array>
          </mxGeometry>
        </mxCell>
        <mxCell id="kf9v6wlm7Lq_Ow1QCOcK-16" style="edgeStyle=orthogonalEdgeStyle;rounded=0;orthogonalLoop=1;jettySize=auto;html=1;exitX=0.5;exitY=1;exitDx=0;exitDy=0;endArrow=none;endFill=0;" edge="1" parent="1" source="kf9v6wlm7Lq_Ow1QCOcK-17" target="kf9v6wlm7Lq_Ow1QCOcK-45">
          <mxGeometry relative="1" as="geometry">
            <Array as="points">
              <mxPoint x="410" y="480" />
              <mxPoint x="620" y="480" />
            </Array>
          </mxGeometry>
        </mxCell>
        <mxCell id="kf9v6wlm7Lq_Ow1QCOcK-17" value="Explorar la configuraci칩n 3D&lt;br&gt;(3)" style="rounded=0;whiteSpace=wrap;html=1;fillColor=#ffe6cc;strokeColor=#d79b00;" vertex="1" parent="1">
          <mxGeometry x="350" y="210" width="120" height="60" as="geometry" />
        </mxCell>
        <mxCell id="kf9v6wlm7Lq_Ow1QCOcK-18" style="edgeStyle=orthogonalEdgeStyle;rounded=0;orthogonalLoop=1;jettySize=auto;html=1;exitX=0.5;exitY=1;exitDx=0;exitDy=0;entryX=0.5;entryY=0;entryDx=0;entryDy=0;endArrow=none;endFill=0;" edge="1" parent="1" source="kf9v6wlm7Lq_Ow1QCOcK-20" target="kf9v6wlm7Lq_Ow1QCOcK-47">
          <mxGeometry relative="1" as="geometry" />
        </mxCell>
        <mxCell id="kf9v6wlm7Lq_Ow1QCOcK-19" style="edgeStyle=orthogonalEdgeStyle;rounded=0;orthogonalLoop=1;jettySize=auto;html=1;exitX=0.5;exitY=1;exitDx=0;exitDy=0;entryX=0.5;entryY=0;entryDx=0;entryDy=0;endArrow=none;endFill=0;" edge="1" parent="1" source="kf9v6wlm7Lq_Ow1QCOcK-20" target="kf9v6wlm7Lq_Ow1QCOcK-48">
          <mxGeometry relative="1" as="geometry" />
        </mxCell>
        <mxCell id="kf9v6wlm7Lq_Ow1QCOcK-20" value="Visualizar componentes individuales&lt;br&gt;(4)" style="rounded=0;whiteSpace=wrap;html=1;fillColor=#ffe6cc;strokeColor=#d79b00;" vertex="1" parent="1">
          <mxGeometry x="560" y="210" width="120" height="60" as="geometry" />
        </mxCell>
        <mxCell id="kf9v6wlm7Lq_Ow1QCOcK-21" style="edgeStyle=orthogonalEdgeStyle;rounded=0;orthogonalLoop=1;jettySize=auto;html=1;exitX=0.5;exitY=1;exitDx=0;exitDy=0;entryX=0.5;entryY=0;entryDx=0;entryDy=0;endArrow=none;endFill=0;" edge="1" parent="1" source="kf9v6wlm7Lq_Ow1QCOcK-24" target="kf9v6wlm7Lq_Ow1QCOcK-50">
          <mxGeometry relative="1" as="geometry">
            <Array as="points">
              <mxPoint x="804" y="480" />
              <mxPoint x="740" y="480" />
              <mxPoint x="740" y="525" />
            </Array>
          </mxGeometry>
        </mxCell>
        <mxCell id="kf9v6wlm7Lq_Ow1QCOcK-22" style="edgeStyle=orthogonalEdgeStyle;rounded=0;orthogonalLoop=1;jettySize=auto;html=1;exitX=0.5;exitY=1;exitDx=0;exitDy=0;endArrow=none;endFill=0;" edge="1" parent="1" source="kf9v6wlm7Lq_Ow1QCOcK-24" target="kf9v6wlm7Lq_Ow1QCOcK-51">
          <mxGeometry relative="1" as="geometry">
            <Array as="points">
              <mxPoint x="804" y="480" />
              <mxPoint x="1080" y="480" />
            </Array>
          </mxGeometry>
        </mxCell>
        <mxCell id="kf9v6wlm7Lq_Ow1QCOcK-23" style="edgeStyle=orthogonalEdgeStyle;rounded=0;orthogonalLoop=1;jettySize=auto;html=1;exitX=0.5;exitY=1;exitDx=0;exitDy=0;endArrow=none;endFill=0;" edge="1" parent="1" source="kf9v6wlm7Lq_Ow1QCOcK-24" target="kf9v6wlm7Lq_Ow1QCOcK-52">
          <mxGeometry relative="1" as="geometry">
            <Array as="points">
              <mxPoint x="804" y="480" />
              <mxPoint x="1260" y="480" />
            </Array>
          </mxGeometry>
        </mxCell>
        <mxCell id="kf9v6wlm7Lq_Ow1QCOcK-60" style="edgeStyle=orthogonalEdgeStyle;rounded=0;orthogonalLoop=1;jettySize=auto;html=1;exitX=0.5;exitY=1;exitDx=0;exitDy=0;endArrow=none;endFill=0;" edge="1" parent="1" source="kf9v6wlm7Lq_Ow1QCOcK-24" target="kf9v6wlm7Lq_Ow1QCOcK-59">
          <mxGeometry relative="1" as="geometry">
            <Array as="points">
              <mxPoint x="804" y="480" />
              <mxPoint x="924" y="480" />
            </Array>
          </mxGeometry>
        </mxCell>
        <mxCell id="kf9v6wlm7Lq_Ow1QCOcK-24" value="Interactuar con la configuraci칩n en tiempo real&lt;br&gt;(5)" style="rounded=0;whiteSpace=wrap;html=1;fillColor=#ffe6cc;strokeColor=#d79b00;" vertex="1" parent="1">
          <mxGeometry x="744" y="210" width="120" height="60" as="geometry" />
        </mxCell>
        <mxCell id="kf9v6wlm7Lq_Ow1QCOcK-25" style="edgeStyle=orthogonalEdgeStyle;rounded=0;orthogonalLoop=1;jettySize=auto;html=1;exitX=0.5;exitY=1;exitDx=0;exitDy=0;endArrow=none;endFill=0;" edge="1" parent="1" source="kf9v6wlm7Lq_Ow1QCOcK-28" target="kf9v6wlm7Lq_Ow1QCOcK-54">
          <mxGeometry relative="1" as="geometry">
            <Array as="points">
              <mxPoint x="1020" y="340" />
              <mxPoint x="887" y="340" />
            </Array>
          </mxGeometry>
        </mxCell>
        <mxCell id="kf9v6wlm7Lq_Ow1QCOcK-26" style="edgeStyle=orthogonalEdgeStyle;rounded=0;orthogonalLoop=1;jettySize=auto;html=1;exitX=0.5;exitY=1;exitDx=0;exitDy=0;endArrow=none;endFill=0;" edge="1" parent="1" source="kf9v6wlm7Lq_Ow1QCOcK-28" target="kf9v6wlm7Lq_Ow1QCOcK-55">
          <mxGeometry relative="1" as="geometry">
            <Array as="points">
              <mxPoint x="1020" y="320" />
              <mxPoint x="1020" y="320" />
            </Array>
          </mxGeometry>
        </mxCell>
        <mxCell id="kf9v6wlm7Lq_Ow1QCOcK-27" style="edgeStyle=orthogonalEdgeStyle;rounded=0;orthogonalLoop=1;jettySize=auto;html=1;exitX=0.5;exitY=1;exitDx=0;exitDy=0;entryX=0.5;entryY=0;entryDx=0;entryDy=0;endArrow=none;endFill=0;" edge="1" parent="1" source="kf9v6wlm7Lq_Ow1QCOcK-28" target="kf9v6wlm7Lq_Ow1QCOcK-56">
          <mxGeometry relative="1" as="geometry">
            <Array as="points">
              <mxPoint x="1020" y="270" />
              <mxPoint x="1020" y="340" />
              <mxPoint x="1170" y="340" />
            </Array>
          </mxGeometry>
        </mxCell>
        <mxCell id="kf9v6wlm7Lq_Ow1QCOcK-28" value="Salir de la aplicaci칩n&lt;br&gt;(6)" style="rounded=0;whiteSpace=wrap;html=1;fillColor=#ffe6cc;strokeColor=#d79b00;" vertex="1" parent="1">
          <mxGeometry x="960" y="210" width="120" height="60" as="geometry" />
        </mxCell>
        <mxCell id="kf9v6wlm7Lq_Ow1QCOcK-29" style="edgeStyle=orthogonalEdgeStyle;rounded=0;orthogonalLoop=1;jettySize=auto;html=1;entryX=0.5;entryY=0;entryDx=0;entryDy=0;endArrow=none;endFill=0;" edge="1" parent="1" target="kf9v6wlm7Lq_Ow1QCOcK-38">
          <mxGeometry relative="1" as="geometry">
            <mxPoint x="180" y="271" as="sourcePoint" />
            <Array as="points">
              <mxPoint x="180" y="340" />
              <mxPoint x="50" y="340" />
            </Array>
          </mxGeometry>
        </mxCell>
        <mxCell id="kf9v6wlm7Lq_Ow1QCOcK-30" style="edgeStyle=orthogonalEdgeStyle;rounded=0;orthogonalLoop=1;jettySize=auto;html=1;exitX=0.5;exitY=1;exitDx=0;exitDy=0;entryX=0.5;entryY=0;entryDx=0;entryDy=0;endArrow=none;endFill=0;" edge="1" parent="1" source="kf9v6wlm7Lq_Ow1QCOcK-32" target="kf9v6wlm7Lq_Ow1QCOcK-39">
          <mxGeometry relative="1" as="geometry">
            <Array as="points">
              <mxPoint x="180" y="270" />
            </Array>
          </mxGeometry>
        </mxCell>
        <mxCell id="kf9v6wlm7Lq_Ow1QCOcK-31" style="edgeStyle=orthogonalEdgeStyle;rounded=0;orthogonalLoop=1;jettySize=auto;html=1;entryX=0.5;entryY=0;entryDx=0;entryDy=0;endArrow=none;endFill=0;" edge="1" parent="1" target="kf9v6wlm7Lq_Ow1QCOcK-40">
          <mxGeometry relative="1" as="geometry">
            <mxPoint x="180" y="270" as="sourcePoint" />
            <Array as="points">
              <mxPoint x="180" y="340" />
              <mxPoint x="310" y="340" />
            </Array>
          </mxGeometry>
        </mxCell>
        <mxCell id="kf9v6wlm7Lq_Ow1QCOcK-32" value="Selecci칩n de&amp;nbsp;&lt;br&gt;componentes&lt;br&gt;(2)" style="rounded=0;whiteSpace=wrap;html=1;fillColor=#ffe6cc;strokeColor=#d79b00;" vertex="1" parent="1">
          <mxGeometry x="120" y="210" width="120" height="60" as="geometry" />
        </mxCell>
        <mxCell id="kf9v6wlm7Lq_Ow1QCOcK-33" value="Abrir men칰 de inicio&lt;br&gt;(1.1)" style="rounded=0;whiteSpace=wrap;html=1;fillColor=#fff2cc;strokeColor=#d6b656;" vertex="1" parent="1">
          <mxGeometry x="-480" y="460" width="120" height="60" as="geometry" />
        </mxCell>
        <mxCell id="kf9v6wlm7Lq_Ow1QCOcK-34" value="Buscar aplicaci칩n&lt;br&gt;(1.2)" style="rounded=0;whiteSpace=wrap;html=1;fillColor=#fff2cc;strokeColor=#d6b656;" vertex="1" parent="1">
          <mxGeometry x="-350" y="460" width="120" height="60" as="geometry" />
        </mxCell>
        <mxCell id="kf9v6wlm7Lq_Ow1QCOcK-35" value="Registrarse en la&lt;br&gt;aplicaci칩n&lt;br&gt;(1.3)" style="rounded=0;whiteSpace=wrap;html=1;fillColor=#fff2cc;strokeColor=#d6b656;" vertex="1" parent="1">
          <mxGeometry x="-220" y="460" width="120" height="60" as="geometry" />
        </mxCell>
        <mxCell id="kf9v6wlm7Lq_Ow1QCOcK-36" value="Iniciar sesi칩n&lt;br&gt;(1.4)" style="rounded=0;whiteSpace=wrap;html=1;fillColor=#fff2cc;strokeColor=#d6b656;" vertex="1" parent="1">
          <mxGeometry x="-90" y="460" width="120" height="60" as="geometry" />
        </mxCell>
        <mxCell id="kf9v6wlm7Lq_Ow1QCOcK-37" value="&lt;b&gt;Plan 1:&lt;/b&gt;&lt;br&gt;&lt;div style=&quot;&quot;&gt;&lt;span style=&quot;background-color: initial;&quot;&gt;Hacer 1.1, 1.2, 1.4&lt;/span&gt;&lt;/div&gt;&lt;div style=&quot;&quot;&gt;&lt;span style=&quot;background-color: initial;&quot;&gt;Si es necesario hacer 1.3&lt;/span&gt;&lt;/div&gt;" style="text;html=1;strokeColor=none;fillColor=none;align=left;verticalAlign=middle;whiteSpace=wrap;rounded=0;" vertex="1" parent="1">
          <mxGeometry x="-145" y="280" width="110" height="60" as="geometry" />
        </mxCell>
        <mxCell id="kf9v6wlm7Lq_Ow1QCOcK-38" value="Selecci칩n manual&amp;nbsp;&lt;br&gt;de componentes&lt;br&gt;(2.1)" style="rounded=0;whiteSpace=wrap;html=1;fillColor=#fff2cc;strokeColor=#d6b656;" vertex="1" parent="1">
          <mxGeometry x="-10" y="380" width="120" height="60" as="geometry" />
        </mxCell>
        <mxCell id="kf9v6wlm7Lq_Ow1QCOcK-39" value="Realizar test de&lt;br style=&quot;border-color: var(--border-color);&quot;&gt;identificaci칩n de&lt;br style=&quot;border-color: var(--border-color);&quot;&gt;perfil&lt;br&gt;(2.2)" style="rounded=0;whiteSpace=wrap;html=1;fillColor=#fff2cc;strokeColor=#d6b656;" vertex="1" parent="1">
          <mxGeometry x="120" y="380" width="120" height="60" as="geometry" />
        </mxCell>
        <mxCell id="kf9v6wlm7Lq_Ow1QCOcK-40" value="Selecci칩n autom치tica&lt;br style=&quot;border-color: var(--border-color);&quot;&gt;de componentes&lt;br&gt;(2.3)" style="rounded=0;whiteSpace=wrap;html=1;fillColor=#fff2cc;strokeColor=#d6b656;" vertex="1" parent="1">
          <mxGeometry x="250" y="380" width="120" height="60" as="geometry" />
        </mxCell>
        <mxCell id="kf9v6wlm7Lq_Ow1QCOcK-41" value="&lt;b&gt;Plan 2:&lt;/b&gt;&lt;br&gt;&lt;div style=&quot;&quot;&gt;&lt;span style=&quot;background-color: initial;&quot;&gt;Hacer 2.1,&lt;/span&gt;&lt;/div&gt;&lt;div style=&quot;&quot;&gt;&lt;span style=&quot;background-color: initial;&quot;&gt;Si es necesario hacer 2.2, 2.3&lt;/span&gt;&lt;/div&gt;" style="text;html=1;strokeColor=none;fillColor=none;align=left;verticalAlign=middle;whiteSpace=wrap;rounded=0;" vertex="1" parent="1">
          <mxGeometry x="50" y="270" width="110" height="60" as="geometry" />
        </mxCell>
        <mxCell id="kf9v6wlm7Lq_Ow1QCOcK-42" value="Navegar por la interfaz 3D&lt;br&gt;(3.1)" style="rounded=0;whiteSpace=wrap;html=1;fillColor=#fff2cc;strokeColor=#d6b656;" vertex="1" parent="1">
          <mxGeometry x="160" y="525" width="120" height="60" as="geometry" />
        </mxCell>
        <mxCell id="kf9v6wlm7Lq_Ow1QCOcK-43" value="Rotar la visualizaci칩n&lt;br&gt;(3.2)" style="rounded=0;whiteSpace=wrap;html=1;fillColor=#fff2cc;strokeColor=#d6b656;" vertex="1" parent="1">
          <mxGeometry x="290" y="525" width="120" height="60" as="geometry" />
        </mxCell>
        <mxCell id="kf9v6wlm7Lq_Ow1QCOcK-44" value="Hacer zoom&lt;br&gt;en la visualizaci칩n&lt;br&gt;(3.3)" style="rounded=0;whiteSpace=wrap;html=1;fillColor=#fff2cc;strokeColor=#d6b656;" vertex="1" parent="1">
          <mxGeometry x="420" y="525" width="120" height="60" as="geometry" />
        </mxCell>
        <mxCell id="kf9v6wlm7Lq_Ow1QCOcK-45" value="Moverse por los componentes&lt;br&gt;(3.4)" style="rounded=0;whiteSpace=wrap;html=1;fillColor=#fff2cc;strokeColor=#d6b656;" vertex="1" parent="1">
          <mxGeometry x="560" y="525" width="120" height="60" as="geometry" />
        </mxCell>
        <mxCell id="kf9v6wlm7Lq_Ow1QCOcK-46" value="&lt;b&gt;Plan 3:&lt;/b&gt;&lt;br&gt;&lt;div style=&quot;&quot;&gt;&lt;span style=&quot;background-color: initial;&quot;&gt;Hacer 3.1, 3.2, 3.3, 3.4&lt;/span&gt;&lt;/div&gt;" style="text;html=1;strokeColor=none;fillColor=none;align=left;verticalAlign=middle;whiteSpace=wrap;rounded=0;" vertex="1" parent="1">
          <mxGeometry x="304" y="270" width="110" height="60" as="geometry" />
        </mxCell>
        <mxCell id="kf9v6wlm7Lq_Ow1QCOcK-47" value="Selecci칩n un componente en la visualizaci칩n&lt;br&gt;(4.1)" style="rounded=0;whiteSpace=wrap;html=1;fillColor=#fff2cc;strokeColor=#d6b656;" vertex="1" parent="1">
          <mxGeometry x="494" y="380" width="120" height="60" as="geometry" />
        </mxCell>
        <mxCell id="kf9v6wlm7Lq_Ow1QCOcK-48" value="Visualizaci칩n de los detalles del componente&lt;br&gt;(4.2)" style="rounded=0;whiteSpace=wrap;html=1;fillColor=#fff2cc;strokeColor=#d6b656;" vertex="1" parent="1">
          <mxGeometry x="624" y="380" width="120" height="60" as="geometry" />
        </mxCell>
        <mxCell id="kf9v6wlm7Lq_Ow1QCOcK-49" value="&lt;b&gt;Plan 4:&lt;/b&gt;&lt;br&gt;&lt;div style=&quot;&quot;&gt;&lt;span style=&quot;background-color: initial;&quot;&gt;Hacer 4.1, 4.2&lt;/span&gt;&lt;/div&gt;" style="text;html=1;strokeColor=none;fillColor=none;align=left;verticalAlign=middle;whiteSpace=wrap;rounded=0;" vertex="1" parent="1">
          <mxGeometry x="514" y="270" width="110" height="60" as="geometry" />
        </mxCell>
        <mxCell id="kf9v6wlm7Lq_Ow1QCOcK-50" value="Edici칩n de componentes en tiempo real&lt;br&gt;(5.1)" style="rounded=0;whiteSpace=wrap;html=1;fillColor=#fff2cc;strokeColor=#d6b656;" vertex="1" parent="1">
          <mxGeometry x="700" y="520" width="120" height="60" as="geometry" />
        </mxCell>
        <mxCell id="kf9v6wlm7Lq_Ow1QCOcK-51" value="Confirmar cambios&lt;br&gt;(5.2)" style="rounded=0;whiteSpace=wrap;html=1;fillColor=#fff2cc;strokeColor=#d6b656;" vertex="1" parent="1">
          <mxGeometry x="1030" y="520" width="120" height="60" as="geometry" />
        </mxCell>
        <mxCell id="kf9v6wlm7Lq_Ow1QCOcK-52" value="Rechazar cambios&lt;br&gt;(5.4)" style="rounded=0;whiteSpace=wrap;html=1;fillColor=#fff2cc;strokeColor=#d6b656;" vertex="1" parent="1">
          <mxGeometry x="1190" y="520" width="120" height="60" as="geometry" />
        </mxCell>
        <mxCell id="kf9v6wlm7Lq_Ow1QCOcK-53" value="&lt;b&gt;Plan 5:&lt;/b&gt;&lt;br&gt;&lt;div style=&quot;&quot;&gt;&lt;span style=&quot;background-color: initial;&quot;&gt;Hacer 5.1, 5.3&lt;/span&gt;&lt;/div&gt;&lt;div style=&quot;&quot;&gt;&lt;span style=&quot;background-color: initial;&quot;&gt;Si es necesario&lt;/span&gt;&lt;/div&gt;&lt;div style=&quot;&quot;&gt;&lt;span style=&quot;background-color: initial;&quot;&gt;hacer 5.4&lt;/span&gt;&lt;/div&gt;&lt;div style=&quot;&quot;&gt;&lt;span style=&quot;background-color: initial;&quot;&gt;&lt;br&gt;&lt;/span&gt;&lt;/div&gt;&lt;div style=&quot;&quot;&gt;&lt;span style=&quot;background-color: initial;&quot;&gt;Hacer 5.2 si se desea&lt;/span&gt;&lt;/div&gt;&lt;div style=&quot;&quot;&gt;&lt;span style=&quot;background-color: initial;&quot;&gt;&lt;br&gt;&lt;/span&gt;&lt;/div&gt;&lt;div style=&quot;&quot;&gt;&lt;span style=&quot;background-color: initial;&quot;&gt;&lt;br&gt;&lt;/span&gt;&lt;/div&gt;" style="text;html=1;strokeColor=none;fillColor=none;align=left;verticalAlign=middle;whiteSpace=wrap;rounded=0;" vertex="1" parent="1">
          <mxGeometry x="710" y="310" width="110" height="60" as="geometry" />
        </mxCell>
        <mxCell id="kf9v6wlm7Lq_Ow1QCOcK-54" value="Cerrar sesi칩n&lt;br&gt;(6.1)" style="rounded=0;whiteSpace=wrap;html=1;fillColor=#fff2cc;strokeColor=#d6b656;" vertex="1" parent="1">
          <mxGeometry x="827" y="380" width="120" height="60" as="geometry" />
        </mxCell>
        <mxCell id="kf9v6wlm7Lq_Ow1QCOcK-55" value="Confirmaci칩n de salida de la aplicaci칩n&lt;br&gt;(6.2)" style="rounded=0;whiteSpace=wrap;html=1;fillColor=#fff2cc;strokeColor=#d6b656;" vertex="1" parent="1">
          <mxGeometry x="957" y="380" width="120" height="60" as="geometry" />
        </mxCell>
        <mxCell id="kf9v6wlm7Lq_Ow1QCOcK-56" value="Rechazo de salida&lt;br&gt;de la aplicaci칩n&lt;br&gt;(6.3)" style="rounded=0;whiteSpace=wrap;html=1;fillColor=#fff2cc;strokeColor=#d6b656;" vertex="1" parent="1">
          <mxGeometry x="1090" y="380" width="120" height="60" as="geometry" />
        </mxCell>
        <mxCell id="kf9v6wlm7Lq_Ow1QCOcK-57" value="&lt;b&gt;Plan 6:&lt;/b&gt;&lt;br&gt;&lt;div style=&quot;&quot;&gt;&lt;span style=&quot;background-color: initial;&quot;&gt;Hacer 6.1, 6.2&lt;/span&gt;&lt;/div&gt;&lt;div style=&quot;&quot;&gt;&lt;span style=&quot;background-color: initial;&quot;&gt;Si es necesario&lt;/span&gt;&lt;/div&gt;&lt;div style=&quot;&quot;&gt;&lt;span style=&quot;background-color: initial;&quot;&gt;hacer 6.3&lt;/span&gt;&lt;/div&gt;" style="text;html=1;strokeColor=none;fillColor=none;align=left;verticalAlign=middle;whiteSpace=wrap;rounded=0;" vertex="1" parent="1">
          <mxGeometry x="920" y="280" width="110" height="60" as="geometry" />
        </mxCell>
        <mxCell id="kf9v6wlm7Lq_Ow1QCOcK-59" value="Compartir configuraci칩n con amigos&lt;br&gt;(5.2)" style="rounded=0;whiteSpace=wrap;html=1;fillColor=#fff2cc;strokeColor=#d6b656;" vertex="1" parent="1">
          <mxGeometry x="864" y="520" width="120" height="60" as="geometry" />
        </mxCell>
      </root>
    </mxGraphModel>
  </diagram>
</mxfile>
